<?xml version="1.0" encoding="UTF-8" standalone="no"?>
<!-- Created with Inkscape (http://www.inkscape.org/) -->

<svg
   width="512"
   height="512"
   viewBox="0 0 512 512"
   version="1.1"
   id="svg1"
   xml:space="preserve"
   xmlns="http://www.w3.org/2000/svg"
   xmlns:svg="http://www.w3.org/2000/svg"><defs
     id="defs1"><linearGradient
       id="11643303628562609194"
       x1="4400.8535"
       y1="4571.7661"
       x2="58493.352"
       y2="54679.77"
       gradientUnits="userSpaceOnUse"><stop
         stop-color="#2268ba"
         id="stop1" /><stop
         offset="1"
         stop-color="#6021a5"
         id="stop2" /></linearGradient></defs><g
     transform="matrix(2.5845984,0,0,2.5845984,-37.010283,-37.711698)"
     id="g6"><g
       transform="translate(0.04877217)"
       id="g5"><g
         transform="translate(0.00344035,-0.14986442)"
         id="g2"><path
           d="m 14.268817,39.122081 c 0,-13.452951 10.927842,-24.380793 24.380792,-24.380793 H 187.98196 c 13.45295,0 24.3808,10.927842 24.3808,24.380793 V 188.45444 c 0,13.45295 -10.92785,24.38079 -24.3808,24.38079 H 38.649609 c -13.45295,0 -24.380792,-10.92784 -24.380792,-24.38079 z"
           fill="url(#11643303628562609194)"
           id="path2"
           style="fill:url(#11643303628562609194)" /></g><g
         transform="translate(0.00344035,-0.14986442)"
         id="g3"><path
           d="m 714.89095,480.4334 c 0,0 8.95433,8.723 9.38616,9.14368 0.4366,0.42532 21.47565,-20.95296 21.47565,-20.95296"
           transform="translate(-563,-419)"
           fill="none"
           stroke="#fefefe"
           stroke-width="10"
           stroke-linecap="round"
           id="path3" /></g><g
         transform="translate(0.00344035,-0.14986442)"
         id="g4"><path
           d="m 686.62457,487.26715 c 0,0 -64.92308,-5e-5 -64.92308,-5e-5 0,0 0,40.60564 0,40.60564 0,0 117.22859,0 117.22859,0 0,0 0,40.37619 0,40.37619 0,0 -117.22859,0 -117.22859,0 0,0 0,-40.37619 0,-40.37619 0,0 0,78.22886 0,78.22886 0,0 117.22859,0 117.22859,0 0,0 0,-37.85267 0,-37.85267"
           transform="matrix(1.0863102,0,0,1.0727275,-625.72667,-472.66586)"
           fill="none"
           stroke="#fefefe"
           stroke-width="10"
           stroke-linecap="round"
           stroke-linejoin="round"
           id="path4" /></g></g></g></svg>
